<svg preserveAspectRatio="none" width="100%" height="100%" overflow="visible" style="display: block;" viewBox="0 0 16.6667 16.6667" fill="none" xmlns="http://www.w3.org/2000/svg">
<path id="icon" fill-rule="evenodd" clip-rule="evenodd" d="M8.33333 16.6667C12.9357 16.6667 16.6667 12.9357 16.6667 8.33333C16.6667 3.73096 12.9357 0 8.33333 0C3.73096 0 0 3.73096 0 8.33333C0 12.9357 3.73096 16.6667 8.33333 16.6667ZM12.8406 6.72976C13.1823 6.38805 13.1823 5.83403 12.8406 5.49232C12.4989 5.15062 11.9449 5.15062 11.6032 5.49232L7.22188 9.87361L5.61838 8.2701C5.27667 7.92839 4.72265 7.92839 4.38094 8.2701C4.03923 8.61181 4.03923 9.16583 4.38094 9.50754L6.60316 11.7298C6.94487 12.0715 7.49889 12.0715 7.8406 11.7298L12.8406 6.72976Z" fill="#2FAD32"/>
</svg>
